<svg id="Layer_1" data-name="Layer 1" xmlns="http://www.w3.org/2000/svg" viewBox="0 0 50 50"><title>icon</title><path d="M44.68,15.08a34.15,34.15,0,0,1,.75,6.16L45.51,25l-.08,3.76A34.36,34.36,0,0,1,44.68,35,5.36,5.36,0,0,1,41,38.6a53.51,53.51,0,0,1-9.16.75L25,39.42l-6.84-.07A53.51,53.51,0,0,1,9,38.6,5.36,5.36,0,0,1,5.32,35a34.36,34.36,0,0,1-.75-6.23L4.49,25c0-1.1,0-2.35.08-3.76a34.15,34.15,0,0,1,.75-6.16A5.28,5.28,0,0,1,9,11.4a53.51,53.51,0,0,1,9.16-.75L25,10.58l6.84.07A53.51,53.51,0,0,1,41,11.4a5.28,5.28,0,0,1,3.68,3.68ZM20.79,31.16,31.54,25,20.79,18.92V31.16Z"/></svg>