<svg id="Layer_1" data-name="Layer 1" xmlns="http://www.w3.org/2000/svg" viewBox="0 0 50 50"><title>icon</title><path d="M25,10.42c4.75,0,5.31,0,7.19.1a9.94,9.94,0,0,1,3.3.61,5.86,5.86,0,0,1,3.38,3.38,10,10,0,0,1,.61,3.3c.09,1.88.1,2.44.1,7.19s0,5.31-.1,7.19a9.94,9.94,0,0,1-.61,3.3,5.72,5.72,0,0,1-1.33,2,5.59,5.59,0,0,1-2,1.33,9.94,9.94,0,0,1-3.3.61c-1.88.09-2.44.1-7.19.1s-5.31,0-7.19-.1a9.94,9.94,0,0,1-3.3-.61,5.59,5.59,0,0,1-2-1.33,5.72,5.72,0,0,1-1.33-2,9.94,9.94,0,0,1-.61-3.3c-.09-1.88-.1-2.44-.1-7.19s0-5.31.1-7.19a10,10,0,0,1,.61-3.3,5.86,5.86,0,0,1,3.38-3.38,9.94,9.94,0,0,1,3.3-.61c1.88-.09,2.44-.1,7.19-.1m0-3.21c-4.83,0-5.44,0-7.34.11a12.86,12.86,0,0,0-4.31.82,9.19,9.19,0,0,0-5.21,5.21,13.13,13.13,0,0,0-.82,4.32c-.09,1.89-.11,2.5-.11,7.33s0,5.44.11,7.33a13.13,13.13,0,0,0,.82,4.32,9.19,9.19,0,0,0,5.21,5.21,12.86,12.86,0,0,0,4.31.82c1.9.09,2.51.11,7.34.11s5.44,0,7.33-.11a12.88,12.88,0,0,0,4.32-.82,9.19,9.19,0,0,0,5.21-5.21,13.13,13.13,0,0,0,.82-4.32c.09-1.89.11-2.5.11-7.33s0-5.44-.11-7.33a13.13,13.13,0,0,0-.82-4.32,9.19,9.19,0,0,0-5.21-5.21,12.88,12.88,0,0,0-4.32-.82c-1.89-.09-2.5-.11-7.33-.11Z"/><path d="M25,15.86A9.14,9.14,0,1,0,34.13,25,9.14,9.14,0,0,0,25,15.86Zm0,15.07A5.93,5.93,0,1,1,30.93,25,5.92,5.92,0,0,1,25,30.93Z"/><path d="M36.63,15.5a2.14,2.14,0,1,1-2.13-2.13A2.13,2.13,0,0,1,36.63,15.5Z"/></svg>