<svg id="Layer_1" data-name="Layer 1" xmlns="http://www.w3.org/2000/svg" viewBox="0 0 50 50"><title>icon</title><path d="M6.91,36.37A21.06,21.06,0,0,0,18.29,39.7c13.78,0,21.57-11.64,21.1-22.08a14.85,14.85,0,0,0,3.7-3.84A14.85,14.85,0,0,1,38.83,15a7.45,7.45,0,0,0,3.26-4.11,14.76,14.76,0,0,1-4.71,1.8,7.43,7.43,0,0,0-12.65,6.77,21.07,21.07,0,0,1-15.3-7.75,7.42,7.42,0,0,0,2.3,9.91,7.51,7.51,0,0,1-3.37-.93,7.44,7.44,0,0,0,6,7.37,7.42,7.42,0,0,1-3.36.13,7.44,7.44,0,0,0,6.94,5.15,14.93,14.93,0,0,1-11,3.08"/></svg>